<?xml version="1.0" standalone="no"?>
<!DOCTYPE svg PUBLIC "-//W3C//DTD SVG 20010904//EN"
 "http://www.w3.org/TR/2001/REC-SVG-20010904/DTD/svg10.dtd">
<svg version="1.0" xmlns="http://www.w3.org/2000/svg"
 width="134.400000pt" height="134.400000pt" viewBox="0 0 134.400000 134.400000"
 preserveAspectRatio="xMidYMid meet">
<metadata>
Created by potrace 1.13, written by Peter Selinger 2001-2015
</metadata>
<g transform="translate(0.000000,134.400000) scale(0.080000,-0.080000)"
fill="#000000" stroke="none">
<path d="M806 1610 c-50 -44 -105 -159 -113 -238 -3 -34 0 -109 7 -167 10 -85
10 -110 0 -135 -22 -53 -98 -76 -114 -34 -3 8 -1 38 5 66 6 28 9 85 7 127 -6
103 -59 223 -66 148 -3 -38 -28 -88 -76 -152 -52 -68 -66 -107 -66 -186 0
-191 253 -390 496 -389 90 1 143 13 232 56 85 41 145 92 173 145 28 56 25 77
-7 39 -38 -44 -96 -71 -161 -73 -67 -2 -80 15 -32 40 65 36 90 65 104 126 14
62 7 156 -15 197 -8 14 -10 40 -6 67 l6 43 -30 -21 c-36 -27 -60 -75 -60 -121
0 -114 -62 -174 -143 -137 -39 18 -49 52 -35 119 13 63 16 53 -60 194 -37 67
-41 126 -17 240 8 38 13 71 11 73 -2 3 -20 -10 -40 -27z"/>
<path d="M982 1488 c-46 -48 -65 -100 -53 -145 14 -49 38 -73 75 -73 37 0 49
7 65 38 18 33 6 68 -29 89 -24 14 -30 24 -30 51 0 18 5 42 10 53 16 29 -2 23
-38 -13z"/>
<path d="M224 856 c-7 -18 22 -97 71 -196 52 -103 61 -135 75 -265 6 -55 14
-103 19 -108 5 -5 11 18 15 50 4 32 22 101 39 153 29 87 34 95 60 98 23 3 28
-1 33 -27 4 -17 8 -31 11 -31 2 0 14 12 26 26 15 17 28 23 40 19 15 -6 17 -21
17 -106 0 -79 -3 -101 -15 -105 -24 -10 -63 5 -70 26 -9 28 -43 35 -66 14 -27
-24 -24 -63 10 -115 29 -47 117 -139 131 -139 5 0 4 15 -1 32 -11 39 -3 70 17
66 7 -2 35 -30 61 -63 64 -78 122 -120 158 -111 33 8 104 73 151 138 30 41 39
47 51 36 11 -9 14 -24 9 -55 -3 -24 -2 -43 2 -43 12 0 96 91 126 135 27 42 33
83 16 116 -15 28 -42 23 -73 -12 -18 -21 -34 -29 -49 -27 -22 3 -23 7 -26 107
-3 121 7 139 49 89 l26 -32 11 32 c14 41 46 43 66 4 19 -37 65 -199 68 -239 1
-18 6 -33 10 -33 4 0 8 3 9 8 0 4 2 16 4 27 1 11 6 52 9 90 9 97 19 127 81
258 59 125 70 159 61 183 -5 12 -19 4 -71 -38 -92 -77 -199 -136 -270 -149
-33 -6 -75 -18 -92 -26 l-33 -15 -1 -92 c-1 -103 -4 -126 -25 -211 -16 -66
-65 -148 -100 -172 -21 -13 -25 -13 -47 4 -34 25 -64 71 -87 132 -23 60 -44
224 -37 288 4 41 3 46 -26 63 -16 10 -53 22 -81 25 -72 10 -156 53 -264 134
-62 47 -95 66 -98 57z"/>
<path d="M803 475 c-61 -26 -72 -97 -24 -146 47 -47 117 -34 146 27 20 42 11
77 -27 109 -33 28 -50 30 -95 10z"/>
</g>
</svg>
